<?xml version="1.0" standalone="no"?>
<!DOCTYPE svg PUBLIC "-//W3C//DTD SVG 20010904//EN"
 "http://www.w3.org/TR/2001/REC-SVG-20010904/DTD/svg10.dtd">
<svg version="1.0" xmlns="http://www.w3.org/2000/svg"
 width="1024.000000pt" height="1024.000000pt" viewBox="0 0 1024.000000 1024.000000"
 preserveAspectRatio="xMidYMid meet">

<g transform="translate(0.000000,1024.000000) scale(0.100000,-0.100000)"
fill="#000000" stroke="none">
<path d="M865 10225 c-388 -63 -706 -341 -818 -715 -14 -47 -31 -120 -36 -163
-15 -110 -15 -8344 0 -8454 61 -459 423 -821 882 -882 110 -15 8344 -15 8454
0 459 61 821 423 882 882 15 110 15 8344 0 8454 -61 459 -423 821 -882 882
-126 17 -8377 13 -8482 -4z m2160 -3142 c68 -23 137 -93 160 -162 37 -112 1
-244 -84 -308 -154 -118 -397 -57 -456 116 -49 144 24 307 158 355 57 20 163
20 222 -1z m3945 -978 c0 -76 -2 -85 -18 -85 -48 0 -127 -34 -168 -72 -24 -22
-44 -46 -44 -52 1 -6 15 -20 32 -31 66 -42 98 -171 63 -260 -20 -54 -88 -117
-143 -133 -56 -17 -185 -15 -229 3 -57 24 -101 62 -125 108 -32 59 -31 181 0
250 78 175 263 295 526 342 115 21 106 27 106 -70z m300 70 c320 -48 506 -207
581 -496 22 -81 23 -106 28 -721 6 -626 6 -637 27 -665 42 -56 119 -71 169
-31 29 23 75 109 75 143 1 43 13 46 68 17 28 -15 52 -32 52 -39 0 -33 -32
-158 -54 -207 -33 -74 -104 -148 -169 -177 -64 -27 -231 -38 -319 -20 -101 21
-204 117 -273 255 l-35 69 0 687 c0 423 -4 708 -10 741 -22 118 -99 216 -203
259 l-57 24 0 88 c0 64 3 88 13 88 6 0 55 -7 107 -15z m-4083 -1182 c-4 -1000
-6 -1179 -20 -1248 -64 -333 -175 -491 -399 -571 l-38 -13 -2 1338 -3 1337
-27 41 c-27 41 -50 55 -205 123 l-53 23 0 69 0 68 376 0 375 0 -4 -1167z
m1163 315 c0 -879 1 -893 43 -973 23 -44 76 -91 127 -112 34 -13 71 -18 150
-18 116 0 173 18 254 80 23 17 47 34 54 39 9 5 12 -20 12 -114 l0 -120 -32
-20 c-39 -24 -121 -55 -198 -77 -88 -24 -338 -29 -441 -9 -170 33 -305 127
-364 251 -61 129 -58 96 -64 890 -4 526 -9 736 -18 750 -24 41 -67 71 -146
100 l-82 31 -3 72 -3 72 356 0 355 0 0 -842z m1270 -50 c0 -612 4 -906 11
-933 19 -69 53 -95 192 -146 l57 -20 0 -70 0 -69 -342 2 -343 3 -17 120 c-14
104 -17 226 -17 913 -1 862 1 825 -56 871 -15 11 -50 27 -78 36 -29 9 -69 23
-89 32 l-38 16 0 69 0 68 360 0 360 0 0 -892z m1620 -48 c0 -77 -3 -92 -17
-97 -10 -3 -63 -27 -119 -53 -309 -144 -443 -323 -432 -578 3 -87 8 -107 36
-165 58 -118 141 -163 286 -155 92 5 152 27 209 78 l37 32 0 -104 0 -105 -69
-32 c-112 -51 -192 -64 -376 -58 -182 6 -263 24 -380 85 -295 155 -361 512
-145 779 107 133 320 260 585 351 99 34 353 110 373 111 9 1 12 -23 12 -89z
m-4945 -1481 c118 -32 182 -166 145 -301 -6 -21 -18 -41 -26 -46 -28 -15 20
-45 81 -50 l55 -4 0 -101 0 -100 -117 6 c-282 13 -439 133 -451 343 -5 98 7
139 55 189 66 68 158 91 258 64z"/>
</g>
</svg>
